<?xml version="1.0" encoding="UTF-8"?>
<svg version="1.1" xmlns="http://www.w3.org/2000/svg" width="227" height="270">
<path d="M0 0 C44.89915054 14.97423906 89.75064284 35.25271211 130.390625 59.53125 C131.13006348 59.97130371 131.86950195 60.41135742 132.63134766 60.86474609 C148.42958285 70.3320575 163.2176594 80.6191352 176.390625 93.53125 C177.16792969 94.26988281 177.94523438 95.00851563 178.74609375 95.76953125 C180.34233651 97.30842397 181.87650315 98.91149174 183.390625 100.53125 C183.390625 101.19125 183.390625 101.85125 183.390625 102.53125 C180.13989116 101.85430772 177.45922437 100.67870376 174.50317383 99.17724609 C173.52768082 98.68465302 172.55218781 98.19205994 171.5471344 97.68453979 C170.49130661 97.14668854 169.43547882 96.60883728 168.34765625 96.0546875 C166.06947309 94.90402529 163.79114709 93.75364584 161.51269531 92.60351562 C160.30680159 91.9933294 159.10095094 91.38305804 157.8951416 90.77270508 C136.2868483 79.84179861 114.60355699 69.18850334 92.390625 59.53125 C90.70259766 58.79165039 90.70259766 58.79165039 88.98046875 58.03710938 C65.83299834 47.92531967 42.27330337 39.04731032 18.328125 31.03125 C17.56735657 30.7755423 16.80658813 30.51983459 16.02276611 30.25637817 C7.2216878 27.30737136 -1.54970117 24.59754876 -10.609375 22.53125 C-10.24803467 23.42553711 -9.88669434 24.31982422 -9.5144043 25.24121094 C16.92223159 90.87138208 33.38135064 157.89857907 45.390625 227.53125 C46.050625 227.53125 46.710625 227.53125 47.390625 227.53125 C49.06211329 225.24948811 50.61503438 222.97051886 52.140625 220.59375 C53.04675585 219.20434937 53.95300531 217.81502608 54.859375 216.42578125 C55.29636719 215.75111816 55.73335938 215.07645508 56.18359375 214.38134766 C57.6346843 212.15716397 59.13632119 209.96969198 60.640625 207.78125 C62.61916422 204.81890675 64.34998297 201.80460227 66.015625 198.65625 C68.7606837 193.51550371 71.81609128 188.62492776 74.953125 183.71875 C79.47999052 176.63659083 83.83090595 169.47197172 88.078125 162.21875 C91.83693043 155.81715674 95.60859094 149.43003814 99.578125 143.15625 C100.27292969 142.05539063 100.96773437 140.95453125 101.68359375 139.8203125 C102.24691406 139.06492188 102.81023437 138.30953125 103.390625 137.53125 C104.050625 137.53125 104.710625 137.53125 105.390625 137.53125 C104.94719947 144.38763828 103.79927704 150.53431622 101.578125 157.03125 C101.27680664 157.92070312 100.97548828 158.81015625 100.66503906 159.7265625 C93.84851686 179.1145943 84.17894151 197.50340124 74.390625 215.53125 C73.97071289 216.30903809 73.55080078 217.08682617 73.11816406 217.88818359 C51.74859725 257.36599769 51.74859725 257.36599769 42.390625 263.53125 C39.453125 264.09375 39.453125 264.09375 36.390625 263.53125 C27.55589542 255.95862465 26.32197013 241.41095734 23.93029785 230.53527832 C15.75224176 193.53702003 5.37872849 157.15690164 -5.85021973 120.98193359 C-6.57928293 118.62839237 -7.30383078 116.27352096 -8.02636719 113.91796875 C-17.2044361 84.00432339 -27.15605256 54.32109225 -37.94580078 24.94873047 C-42.89246615 11.44830401 -42.89246615 11.44830401 -42.984375 4.34375 C-43.01273438 3.33957031 -43.04109375 2.33539063 -43.0703125 1.30078125 C-42.49249769 -2.17100432 -41.30631924 -3.28813523 -38.609375 -5.46875 C-27.70646894 -10.92020303 -10.61082294 -3.42518452 0 0 Z " fill="#F37623" transform="translate(42.609375,6.46875)"/>
</svg>
